<svg width="174" height="45" viewBox="0 0 174 45" fill="none" xmlns="http://www.w3.org/2000/svg">
<rect width="40" height="40" transform="translate(0 2.5)" fill="#87EA5C"/>
<path d="M21.0001 12.8333H14.3334C12.8607 12.8333 11.6667 14.0272 11.6667 15.5V20.1666M21.0001 12.8333V17.5C21.0001 18.9727 22.1939 20.1666 23.6667 20.1666H28.3334M21.0001 12.8333L28.3334 20.1666M28.3334 20.1666V29.5C28.3334 30.9728 27.1395 32.1666 25.6667 32.1666H21.0001" stroke="black" stroke-width="2" stroke-linecap="round" stroke-linejoin="round"/>
<path d="M16.3334 23.4999H15.6667C13.4576 23.4999 11.6667 25.2907 11.6667 27.4999V28.1666C11.6667 30.3758 13.4576 32.1666 15.6667 32.1666H16.3334" stroke="black" stroke-width="2" stroke-linecap="round" stroke-linejoin="round"/>
<path d="M10.3335 27.8333H15.0002" stroke="black" stroke-width="2" stroke-linecap="round" stroke-linejoin="round"/>
<path d="M60.608 22.768C62.4427 22.6827 63.9253 23.0667 65.056 23.92C66.1867 24.7733 66.752 26.0213 66.752 27.664C66.752 28.7307 66.4213 29.7547 65.76 30.736C65.12 31.696 64.096 32.4853 62.688 33.104C61.28 33.7013 59.52 34 57.408 34H48.992V33.808L51.328 32.528V13.872L48.992 12.592V12.4H58.592C60.832 12.4 62.5493 12.816 63.744 13.648C64.96 14.4587 65.568 15.6 65.568 17.072C65.568 18.0533 65.28 18.9493 64.704 19.76C64.128 20.5707 63.4453 21.232 62.656 21.744C61.8667 22.256 61.184 22.5547 60.608 22.64V22.768ZM54.72 13.008V22.608L57.664 22.576C59.2427 22.5547 60.3733 22.16 61.056 21.392C61.7387 20.6027 62.08 19.408 62.08 17.808C62.08 16.3573 61.7173 15.1947 60.992 14.32C60.2667 13.4453 59.104 13.008 57.504 13.008H54.72ZM56.768 33.36C58.944 33.36 60.5333 32.976 61.536 32.208C62.5387 31.4187 63.04 30.0747 63.04 28.176C63.04 26.4053 62.592 25.1253 61.696 24.336C60.8 23.5467 59.3067 23.152 57.216 23.152H54.72V33.328C55.2533 33.3493 55.936 33.36 56.768 33.36ZM83.8483 30.096L83.9763 30.256L82.8563 31.536C82.0456 32.4747 81.3949 33.168 80.9043 33.616C80.4136 34.064 79.9443 34.288 79.4963 34.288C79.0056 34.288 78.6003 34.032 78.2803 33.52C77.9816 33.008 77.7576 31.952 77.6083 30.352C76.7336 31.7387 75.8803 32.7627 75.0483 33.424C74.2163 34.064 73.2349 34.384 72.1043 34.384C71.0589 34.384 70.2376 34.128 69.6403 33.616C69.0643 33.0827 68.7763 32.3787 68.7763 31.504C68.7763 30.288 69.3203 29.1573 70.4083 28.112C71.5176 27.0453 73.0429 25.9147 74.9843 24.72L77.5763 23.248C77.5763 21.712 77.3736 20.5067 76.9683 19.632C76.5843 18.736 75.8696 18.288 74.8243 18.288C73.9069 18.288 73.1816 18.6187 72.6483 19.28C72.1363 19.92 71.8802 20.816 71.8802 21.968C71.8802 22.4587 71.9229 22.928 72.0083 23.376L68.3923 24.816L68.2963 24.72C69.0856 22.7787 70.0243 21.2107 71.1123 20.016C72.2003 18.8213 73.2243 17.9787 74.1843 17.488C75.1656 16.976 75.9123 16.72 76.4243 16.72C78.2376 16.72 79.4429 17.2427 80.0403 18.288C80.6589 19.3333 80.9256 20.72 80.8403 22.448L80.5843 30.32V31.856L83.8483 30.096ZM73.8323 32.272C74.3869 32.272 74.9843 32.048 75.6243 31.6C76.2643 31.152 76.8936 30.4693 77.5123 29.552L77.5763 24.016C75.6563 25.2107 74.2589 26.2987 73.3843 27.28C72.5309 28.2613 72.1043 29.2427 72.1043 30.224C72.1043 30.864 72.2643 31.3653 72.5843 31.728C72.9256 32.0907 73.3416 32.272 73.8323 32.272ZM98.6368 32.88L101.037 33.808V34H93.1008V33.808L95.5008 32.88V22.416C95.5008 21.328 95.2234 20.5173 94.6688 19.984C94.1141 19.4293 93.4314 19.152 92.6208 19.152C91.6608 19.152 90.7221 19.8133 89.8048 21.136V32.88L92.2048 33.808V34H84.2688V33.808L86.6688 32.88V19.248L83.4047 21.008L83.2767 20.848C83.3834 20.72 83.7888 20.2613 84.4928 19.472C85.2608 18.576 85.8794 17.9147 86.3488 17.488C86.8394 17.04 87.3088 16.816 87.7568 16.816C88.2261 16.816 88.6101 17.0507 88.9088 17.52C89.2288 17.9893 89.4634 18.9387 89.6128 20.368C90.4874 19.28 91.3088 18.4267 92.0768 17.808C92.8448 17.168 93.4208 16.848 93.8048 16.848C95.2981 16.848 96.4714 17.296 97.3248 18.192C98.1994 19.0667 98.6368 20.432 98.6368 22.288V32.88ZM110.216 23.216L116.872 33.808V34H110.536V33.808L112.808 32.912L107.88 25.392L106.728 26.416V32.88L109.128 33.808V34H101.224V33.808L103.624 32.88V11.44H103.592L100.808 11.248V11.056L106.536 9.552H106.728V25.68L110.696 21.872C111.677 21.0187 112.168 20.2187 112.168 19.472C112.168 18.5973 111.517 17.904 110.216 17.392V17.2H116.648V17.36L110.216 23.216ZM123.817 25.456V32.56L126.185 33.808V34H117.993V33.808L120.393 32.56L120.425 13.872L118.089 12.592V12.4H126.345C129.033 12.4 131.113 12.88 132.585 13.84C134.078 14.8 134.825 16.3253 134.825 18.416C134.825 19.6747 134.494 20.8373 133.833 21.904C133.193 22.9707 132.201 23.8347 130.857 24.496C129.513 25.136 127.838 25.456 125.833 25.456H123.817ZM123.817 12.976V24.912L125.385 24.88C127.433 24.88 128.937 24.4107 129.897 23.472C130.857 22.5333 131.337 20.9867 131.337 18.832C131.337 14.928 129.47 12.976 125.737 12.976H123.817ZM143.504 12.4C147.066 12.4 149.808 13.2853 151.728 15.056C153.648 16.8267 154.608 19.4187 154.608 22.832C154.608 24.7093 154.224 26.4907 153.456 28.176C152.709 29.8613 151.461 31.2587 149.712 32.368C147.984 33.456 145.722 34 142.928 34H136.336V33.808L138.672 32.528V13.872L136.336 12.592V12.4H143.504ZM142.992 33.392C145.829 33.3707 147.866 32.5387 149.104 30.896C150.362 29.2533 150.992 26.6827 150.992 23.184C150.992 19.8347 150.352 17.296 149.072 15.568C147.813 13.84 145.797 12.976 143.024 12.976H142.064V33.392H142.992ZM172.053 19.888H171.861L170.901 17.776C170.24 16.1547 169.738 15.0453 169.397 14.448C169.056 13.8507 168.661 13.456 168.213 13.264C167.765 13.072 167.05 12.976 166.069 12.976H161.973V23.152H165.269C165.909 23.152 166.41 23.0347 166.773 22.8C167.136 22.5653 167.456 22.192 167.733 21.68C168.01 21.168 168.426 20.2507 168.981 18.928H169.173V27.952H168.981C168.405 26.6293 167.978 25.7227 167.701 25.232C167.445 24.72 167.136 24.3467 166.773 24.112C166.41 23.856 165.909 23.728 165.269 23.728H161.973V32.56L164.341 33.808V34H156.149V33.808L158.549 32.56L158.581 13.872L156.245 12.592V12.4H172.053V19.888Z" fill="black"/>
</svg>
