<svg width="113" height="34" viewBox="0 0 113 34" fill="none" xmlns="http://www.w3.org/2000/svg">
<path d="M8.98462 7.39201C9.27616 7.08518 9.67853 6.99104 10.0133 7.08543L18.7144 9.53924C19.0264 9.62722 19.28 9.87677 19.3688 10.2258L21.7636 19.632C21.8544 19.9888 21.755 20.3951 21.4779 20.6867L15.1082 27.3906C14.8167 27.6975 14.4143 27.7916 14.0796 27.6972L5.37843 25.2434C5.06645 25.1554 4.81284 24.9059 4.72399 24.5569L2.32926 15.1507C2.23843 14.7939 2.33784 14.3876 2.61494 14.0959L8.98462 7.39201Z" stroke="#00AF9E" stroke-width="4.5"></path>
<path d="M34.34 13.66C34.788 12.6893 35.3387 11.9333 35.992 11.392C36.6453 10.8413 37.4433 10.566 38.386 10.566C38.6847 10.566 38.9693 10.5987 39.24 10.664C39.52 10.7293 39.7673 10.832 39.982 10.972L39.8 12.834C39.744 13.0673 39.604 13.184 39.38 13.184C39.2493 13.184 39.058 13.156 38.806 13.1C38.554 13.044 38.2693 13.016 37.952 13.016C37.504 13.016 37.1027 13.0813 36.748 13.212C36.4027 13.3427 36.09 13.5387 35.81 13.8C35.5393 14.052 35.292 14.3693 35.068 14.752C34.8533 15.1253 34.6573 15.5547 34.48 16.04V25H31.974V10.818H33.402C33.6727 10.818 33.8593 10.8693 33.962 10.972C34.0647 11.0747 34.1347 11.252 34.172 11.504L34.34 13.66ZM50.111 16.362C50.111 15.7833 50.027 15.256 49.859 14.78C49.7003 14.2947 49.4623 13.8793 49.145 13.534C48.837 13.1793 48.459 12.9087 48.011 12.722C47.563 12.526 47.0543 12.428 46.485 12.428C45.2903 12.428 44.343 12.778 43.643 13.478C42.9523 14.1687 42.523 15.13 42.355 16.362H50.111ZM52.127 23.012C51.819 23.3853 51.4503 23.712 51.021 23.992C50.5917 24.2627 50.1297 24.4867 49.635 24.664C49.1497 24.8413 48.6457 24.972 48.123 25.056C47.6003 25.1493 47.0823 25.196 46.569 25.196C45.589 25.196 44.6837 25.0327 43.853 24.706C43.0317 24.37 42.3177 23.8847 41.711 23.25C41.1137 22.606 40.647 21.8127 40.311 20.87C39.975 19.9273 39.807 18.8447 39.807 17.622C39.807 16.6327 39.9563 15.7087 40.255 14.85C40.563 13.9913 41.0017 13.2493 41.571 12.624C42.1403 11.9893 42.8357 11.4947 43.657 11.14C44.4783 10.776 45.4023 10.594 46.429 10.594C47.2783 10.594 48.0623 10.7387 48.781 11.028C49.509 11.308 50.1343 11.7187 50.657 12.26C51.189 12.792 51.6043 13.4547 51.903 14.248C52.2017 15.032 52.351 15.928 52.351 16.936C52.351 17.328 52.309 17.5893 52.225 17.72C52.141 17.8507 51.9823 17.916 51.749 17.916H42.271C42.299 18.812 42.4203 19.5913 42.635 20.254C42.859 20.9167 43.167 21.472 43.559 21.92C43.951 22.3587 44.4177 22.69 44.959 22.914C45.5003 23.1287 46.107 23.236 46.779 23.236C47.4043 23.236 47.941 23.166 48.389 23.026C48.8463 22.8767 49.2383 22.718 49.565 22.55C49.8917 22.382 50.1623 22.228 50.377 22.088C50.601 21.9387 50.7923 21.864 50.951 21.864C51.1563 21.864 51.315 21.9433 51.427 22.102L52.127 23.012ZM66.2832 10.818L60.5012 25H58.2612L52.4792 10.818H54.5092C54.7145 10.818 54.8825 10.8693 55.0132 10.972C55.1439 11.0747 55.2325 11.196 55.2792 11.336L58.8772 20.464C58.9892 20.8093 59.0872 21.1453 59.1712 21.472C59.2552 21.7987 59.3345 22.1253 59.4092 22.452C59.4839 22.1253 59.5632 21.7987 59.6472 21.472C59.7312 21.1453 59.8339 20.8093 59.9552 20.464L63.5952 11.336C63.6512 11.1867 63.7445 11.0653 63.8752 10.972C64.0059 10.8693 64.1599 10.818 64.3372 10.818H66.2832ZM70.2207 10.818V25H67.7287V10.818H70.2207ZM70.7527 6.366C70.7527 6.60867 70.7014 6.83733 70.5987 7.052C70.5054 7.25733 70.3747 7.444 70.2067 7.612C70.048 7.77067 69.8567 7.89667 69.6327 7.99C69.418 8.08333 69.1894 8.13 68.9467 8.13C68.704 8.13 68.4754 8.08333 68.2607 7.99C68.0554 7.89667 67.8734 7.77067 67.7147 7.612C67.556 7.444 67.43 7.25733 67.3367 7.052C67.2434 6.83733 67.1967 6.60867 67.1967 6.366C67.1967 6.12333 67.2434 5.89467 67.3367 5.68C67.43 5.456 67.556 5.26467 67.7147 5.106C67.8734 4.938 68.0554 4.80733 68.2607 4.714C68.4754 4.62067 68.704 4.574 68.9467 4.574C69.1894 4.574 69.418 4.62067 69.6327 4.714C69.8567 4.80733 70.048 4.938 70.2067 5.106C70.3747 5.26467 70.5054 5.456 70.5987 5.68C70.7014 5.89467 70.7527 6.12333 70.7527 6.366ZM81.5953 13.156C81.4833 13.3613 81.3106 13.464 81.0773 13.464C80.9373 13.464 80.7786 13.4127 80.6013 13.31C80.4239 13.2073 80.2046 13.0953 79.9433 12.974C79.6913 12.8433 79.3879 12.7267 79.0333 12.624C78.6786 12.512 78.2586 12.456 77.7733 12.456C77.3533 12.456 76.9753 12.512 76.6393 12.624C76.3033 12.7267 76.0139 12.8713 75.7713 13.058C75.5379 13.2447 75.3559 13.464 75.2253 13.716C75.1039 13.9587 75.0433 14.2247 75.0433 14.514C75.0433 14.878 75.1459 15.1813 75.3513 15.424C75.5659 15.6667 75.8459 15.8767 76.1913 16.054C76.5366 16.2313 76.9286 16.39 77.3673 16.53C77.8059 16.6607 78.2539 16.8053 78.7113 16.964C79.1779 17.1133 79.6306 17.2813 80.0693 17.468C80.5079 17.6547 80.8999 17.888 81.2453 18.168C81.5906 18.448 81.8659 18.7933 82.0713 19.204C82.2859 19.6053 82.3933 20.0907 82.3933 20.66C82.3933 21.3133 82.2766 21.92 82.0433 22.48C81.8099 23.0307 81.4646 23.5113 81.0073 23.922C80.5499 24.3233 79.9899 24.6407 79.3273 24.874C78.6646 25.1073 77.8993 25.224 77.0313 25.224C76.0419 25.224 75.1459 25.0653 74.3433 24.748C73.5406 24.4213 72.8593 24.006 72.2993 23.502L72.8873 22.55C72.9619 22.4287 73.0506 22.3353 73.1533 22.27C73.2559 22.2047 73.3866 22.172 73.5453 22.172C73.7133 22.172 73.8906 22.2373 74.0773 22.368C74.2639 22.4987 74.4879 22.6433 74.7493 22.802C75.0199 22.9607 75.3466 23.1053 75.7293 23.236C76.1119 23.3667 76.5879 23.432 77.1573 23.432C77.6426 23.432 78.0673 23.3713 78.4313 23.25C78.7953 23.1193 79.0986 22.9467 79.3413 22.732C79.5839 22.5173 79.7613 22.27 79.8733 21.99C79.9946 21.71 80.0553 21.4113 80.0553 21.094C80.0553 20.702 79.9479 20.38 79.7333 20.128C79.5279 19.8667 79.2526 19.6473 78.9073 19.47C78.5619 19.2833 78.1653 19.1247 77.7173 18.994C77.2786 18.854 76.8259 18.7093 76.3593 18.56C75.9019 18.4107 75.4493 18.2427 75.0013 18.056C74.5626 17.86 74.1706 17.6173 73.8253 17.328C73.4799 17.0387 73.1999 16.684 72.9853 16.264C72.7799 15.8347 72.6773 15.3167 72.6773 14.71C72.6773 14.1687 72.7893 13.6507 73.0133 13.156C73.2373 12.652 73.5639 12.2133 73.9933 11.84C74.4226 11.4573 74.9499 11.154 75.5753 10.93C76.2006 10.706 76.9146 10.594 77.7173 10.594C78.6506 10.594 79.4859 10.7433 80.2233 11.042C80.9699 11.3313 81.6139 11.7327 82.1553 12.246L81.5953 13.156ZM84.4685 23.922C84.4685 23.7447 84.5012 23.5767 84.5665 23.418C84.6319 23.2593 84.7205 23.124 84.8325 23.012C84.9539 22.8907 85.0892 22.7973 85.2385 22.732C85.3972 22.6573 85.5699 22.62 85.7565 22.62C85.9339 22.62 86.1019 22.6573 86.2605 22.732C86.4192 22.7973 86.5545 22.8907 86.6665 23.012C86.7879 23.124 86.8812 23.2593 86.9465 23.418C87.0212 23.5767 87.0585 23.7447 87.0585 23.922C87.0585 24.1087 87.0212 24.2813 86.9465 24.44C86.8812 24.5893 86.7879 24.7247 86.6665 24.846C86.5545 24.958 86.4192 25.0467 86.2605 25.112C86.1019 25.1773 85.9339 25.21 85.7565 25.21C85.3925 25.21 85.0845 25.0887 84.8325 24.846C84.5899 24.594 84.4685 24.286 84.4685 23.922ZM91.6897 21.962C91.9604 22.3633 92.2404 22.704 92.5297 22.984C92.8284 23.2547 93.141 23.4787 93.4677 23.656C93.7944 23.824 94.1397 23.9453 94.5037 24.02C94.877 24.0947 95.269 24.132 95.6797 24.132C96.501 24.132 97.2197 23.9827 97.8357 23.684C98.4517 23.3853 98.965 22.9653 99.3757 22.424C99.7957 21.8733 100.108 21.22 100.314 20.464C100.528 19.6987 100.636 18.8587 100.636 17.944C100.636 15.872 100.253 14.3507 99.4877 13.38C98.7224 12.4 97.6257 11.91 96.1977 11.91C95.2737 11.91 94.4384 12.148 93.6917 12.624C92.945 13.1 92.2777 13.7627 91.6897 14.612V21.962ZM91.6337 13.576C92.2497 12.736 92.9684 12.0687 93.7897 11.574C94.6204 11.0793 95.549 10.832 96.5757 10.832C98.2837 10.832 99.6137 11.4247 100.566 12.61C101.527 13.7953 102.008 15.5733 102.008 17.944C102.008 18.9613 101.872 19.9133 101.602 20.8C101.34 21.6773 100.948 22.4427 100.426 23.096C99.9124 23.74 99.2777 24.2487 98.5217 24.622C97.775 24.9953 96.9117 25.182 95.9317 25.182C94.989 25.182 94.1724 25.0093 93.4817 24.664C92.791 24.3187 92.1937 23.81 91.6897 23.138V29.928H90.3457V11.07H91.0877C91.321 11.07 91.4564 11.1867 91.4937 11.42L91.6337 13.576ZM108.459 25.224C107.516 25.224 106.779 24.9627 106.247 24.44C105.724 23.9173 105.463 23.11 105.463 22.018V12.498H103.461C103.358 12.498 103.274 12.47 103.209 12.414C103.144 12.358 103.111 12.2787 103.111 12.176V11.658L105.491 11.49L105.827 6.506C105.846 6.422 105.883 6.34733 105.939 6.282C105.995 6.21667 106.074 6.184 106.177 6.184H106.807V11.504H111.203V12.498H106.807V21.948C106.807 22.3307 106.854 22.662 106.947 22.942C107.05 23.2127 107.185 23.4367 107.353 23.614C107.53 23.7913 107.736 23.922 107.969 24.006C108.202 24.09 108.454 24.132 108.725 24.132C109.061 24.132 109.35 24.0853 109.593 23.992C109.836 23.8893 110.046 23.782 110.223 23.67C110.4 23.5487 110.545 23.4413 110.657 23.348C110.769 23.2453 110.858 23.194 110.923 23.194C110.998 23.194 111.072 23.2407 111.147 23.334L111.511 23.922C111.156 24.314 110.704 24.6313 110.153 24.874C109.612 25.1073 109.047 25.224 108.459 25.224Z" fill="#293642"></path>
</svg>
